<svg width="148" height="42" viewBox="0 0 148 42" fill="none" xmlns="http://www.w3.org/2000/svg">
<path fill-rule="evenodd" clip-rule="evenodd" d="M81.5655 32.7639C82.5541 31.6526 83.7508 31.1892 84.8575 31.1891C86.082 31.1891 86.9366 31.8841 87.1282 32.7872C87.2558 33.3891 87.1118 34.1531 86.8736 34.917C86.5355 36.0979 85.9838 37.1629 85.7231 38.0428C85.5359 38.7139 85.6558 38.9458 85.9145 38.9461C86.3149 38.9461 86.8679 38.5524 88.4617 36.0748L88.4992 36.0144L89.8722 31.5362H94.0404L92.0296 38.0428C91.814 38.6909 91.9622 38.9459 92.2211 38.9461C92.5927 38.946 93.0945 38.6059 94.439 36.5763C94.4791 36.1667 94.5635 35.7503 94.6943 35.334C95.4139 33.0649 97.5126 31.1892 100.079 31.1891C103.258 31.1891 104.133 33.6441 103.689 35.1028C103.442 35.9362 102.698 36.5377 101.709 36.5378C100.32 36.5378 99.2771 35.2877 99.6661 34.0143C99.8082 33.5744 100.154 33.204 100.689 33.065C100.585 33.0188 100.439 32.9951 100.345 32.9951C99.3086 32.9953 98.478 33.8522 98.2222 34.7551C97.7232 36.3991 98.6224 38.5289 100.647 38.5291C102.319 38.5291 103.806 37.7652 104.861 36.0748L104.892 36.0232L108.169 25.2847H112.361L109.98 32.6014C110.711 31.6058 111.777 31.1891 112.813 31.1891C114.72 31.1891 115.719 32.9027 115.275 34.3614C114.83 35.7042 113.446 36.839 111.014 37.1401C113.007 37.2097 112.792 38.9692 113.922 38.9694C114.487 38.9694 115.079 38.435 116.309 36.5656C116.345 36.1559 116.422 35.7424 116.541 35.334C117.288 32.9723 119.477 31.1892 122.02 31.1891C124.54 31.1891 126.065 32.7174 125.539 34.454C125.035 36.0748 122.858 37.0239 120.212 37.0934C120.624 37.927 121.459 38.529 122.589 38.5291C124.096 38.529 125.332 37.6956 126.378 36.0748L126.39 36.0553L127.772 31.5362H131.657L131.265 33.0184C132.28 31.6986 133.585 31.1891 134.81 31.1891C136.011 31.1891 136.828 31.9305 137.009 32.7872C137.137 33.3891 136.992 34.1531 136.754 34.917C136.416 36.0978 135.865 37.1629 135.604 38.0428C135.417 38.714 135.537 38.9459 135.796 38.9461C136.196 38.9461 136.749 38.5524 138.343 36.0748L138.431 35.9356L139.62 36.7697L139.532 36.9089C137.414 40.2428 136.081 41.8405 133.679 41.8406C132.337 41.8406 131.364 41.0299 131.143 39.988C131.04 39.5018 131.12 38.9919 131.33 38.3206C131.711 37.1165 132.494 35.7039 132.737 34.963C132.906 34.4306 132.758 34.0604 132.334 34.0603C131.675 34.0603 130.95 34.7548 130.273 37.0008L128.895 41.4935H124.727L125.331 39.5168C124.011 40.8922 122.473 41.8633 120.776 41.8633C118.535 41.8632 117.09 40.5461 116.537 38.798C114.718 41.2617 113.445 41.8866 111.879 41.8866C110.514 41.8865 109.414 41.1457 109.134 39.8261C109.031 39.34 109.078 38.7842 108.999 38.4138C108.926 38.0666 108.764 37.858 108.519 37.8116L107.392 41.4935H103.224L103.846 39.4538C102.237 41.0884 100.569 41.8633 98.9294 41.8633C96.7898 41.8632 95.2664 40.5814 94.6793 38.8207C93.2201 40.8552 92.0186 41.8406 90.2448 41.8406C88.8321 41.8405 87.8635 40.9372 87.662 39.988C87.6295 39.835 87.6096 39.6537 87.6054 39.4651C86.4267 41.0357 85.3833 41.8405 83.7976 41.8406C82.4554 41.8406 81.4826 41.0299 81.2615 39.988C81.1584 39.5018 81.2383 38.9919 81.4491 38.3206C81.8295 37.1165 82.6133 35.7039 82.8564 34.963C83.0258 34.4306 82.8766 34.0603 82.4528 34.0603C81.7935 34.0603 81.069 34.7548 80.3916 37.0008L79.0136 41.4935H74.8454L75.4669 39.4544C73.8579 41.0886 72.1897 41.8633 70.5505 41.8633C67.1362 41.8631 65.2898 38.5987 66.316 35.334C67.0356 33.065 69.1338 31.1892 71.7004 31.1891C74.8796 31.1891 75.754 33.6441 75.3099 35.1028C75.0628 35.9362 74.319 36.5378 73.3301 36.5378C71.9407 36.5378 70.8987 35.2878 71.2878 34.0143C71.4299 33.5744 71.7754 33.2039 72.3111 33.065C72.2072 33.0187 72.0606 32.9951 71.9664 32.9951C70.9302 32.9951 70.0991 33.8521 69.8432 34.7551C69.3444 36.3991 70.2441 38.529 72.2692 38.5291C73.9411 38.529 75.4276 37.7651 76.4819 36.0748L76.5136 36.0232L79.7903 25.2847H83.9585L81.5655 32.7639ZM110.657 34.0143C110.045 34.0143 109.56 34.6165 108.954 36.4226C110.088 36.3299 111.059 35.7972 111.302 35.0562C111.463 34.5932 111.222 34.0145 110.657 34.0143ZM121.956 32.9951C121.226 32.9952 120.39 33.7132 120.088 34.7318C119.955 35.1023 119.915 35.4732 119.923 35.8436C121.349 35.7973 122.402 34.9867 122.663 34.1069C122.846 33.5281 122.498 32.9952 121.956 32.9951Z" fill="#660008"/>
<path d="M90.4698 27.7536C90.87 26.5621 92.1191 25.6765 93.3625 25.6578C94.7732 25.6366 95.575 26.7194 95.0983 28.1401C94.7058 29.3087 93.4256 30.2175 92.2062 30.236C90.7716 30.2575 90.0008 29.1514 90.4698 27.7536Z" fill="#660008"/>
<path fill-rule="evenodd" clip-rule="evenodd" d="M68.5265 0.157597C73.8543 0.157597 74.8554 4.28652 74.209 6.41897C73.7939 7.916 72.5915 8.91448 71.0889 8.91452C68.7667 8.9143 67.3881 6.46386 68.008 4.42227C68.2108 3.65106 68.8238 2.87971 69.6319 2.6075C69.4309 2.51691 69.1577 2.51686 68.9756 2.51686C66.7899 2.51686 64.8999 4.15038 64.0241 7.14475C61.7155 15.039 69.6978 19.789 73.9528 14.8519C74.1773 11.5907 76.6104 8.51916 79.2904 8.51916C80.3101 8.51926 81.4049 8.99192 81.7985 10.0787L82.3527 8.87338H86.2422L84.241 15.5134C84.0238 16.1748 84.173 16.4351 84.4338 16.4352C84.8369 16.4352 85.393 16.033 86.9978 13.5051L87.0861 13.363C87.7409 12.2998 88.1948 11.5203 88.4921 10.7878C87.5116 9.84267 87.3079 8.30662 87.5566 7.45589C87.8103 6.62892 88.3331 6.17992 89.0445 6.17983C90.1117 6.17983 91.0825 7.07757 90.5338 9.44037C90.7097 9.48761 90.9045 9.51172 91.1179 9.51173C92.3275 9.51168 93.8254 8.84936 94.3806 8.32952C94.8037 8.99113 95.6233 9.96063 96.163 10.386C95.18 11.3548 94.0251 12.7491 93.7023 13.8124C93.2829 15.2062 94.0129 15.7498 94.4872 15.75C95.1845 15.7499 95.9846 15.0737 96.7832 13.9403C97.2286 11.1962 99.208 8.5192 102.266 8.51916C103.286 8.5192 104.38 8.99189 104.774 10.0787L105.328 8.87338H109.218L107.217 15.5134C107 16.175 107.149 16.4352 107.41 16.4352C107.813 16.4351 108.369 16.0328 109.974 13.5051L110.004 13.4569L111.398 8.87338H115.596L113.765 14.8519C113.548 15.5935 113.767 16.482 114.794 16.4822C115.648 16.4822 116.412 15.9392 116.95 15.1122C115.788 13.7381 115.407 11.8439 115.827 10.3153C116.08 9.37018 116.713 8.5431 117.638 8.54295C118.871 8.54311 119.449 9.488 119.671 10.5512C119.914 11.7091 119.773 13.0799 119.236 14.5922C120.001 14.7733 120.715 14.3859 121.159 13.8728C121.622 11.1716 123.621 8.51916 126.632 8.51916C127.651 8.5193 128.746 8.99196 129.14 10.0787L129.693 8.87338H133.583L131.582 15.5134C131.365 16.1749 131.514 16.4352 131.775 16.4352C132.178 16.4352 132.735 16.0332 134.34 13.5051L135.763 8.87338H139.677L139.282 10.386C140.305 9.03929 141.619 8.51925 142.852 8.51916C144.061 8.51921 144.884 9.27527 145.067 10.1494C145.463 12.0434 144.133 13.872 143.653 15.5134C143.464 16.1987 143.585 16.4352 143.846 16.4352C144.655 16.4352 146.018 14.126 146.499 13.363L147.697 14.2142L147.608 14.3556C145.475 17.7583 144.131 19.3885 141.712 19.3885C139.506 19.3883 138.84 17.4369 139.348 15.7969C139.731 14.5682 140.52 13.1266 140.765 12.3705C140.936 11.8273 140.785 11.4488 140.359 11.4486C139.695 11.4488 138.966 12.1584 138.284 14.4501L136.896 19.0349H132.698L133.208 17.3404C132.079 18.6788 131.023 19.3884 129.808 19.3885C128.931 19.3885 127.709 18.9871 127.441 17.7113C126.794 18.5856 125.729 19.3884 124.496 19.3885C122.322 19.3884 121.29 17.7941 121.087 15.8991C120.368 16.3286 119.472 16.4764 118.577 16.1987C117.774 17.6874 116.327 19.3885 113.268 19.3885C111.373 19.3884 109.897 18.3789 109.507 16.8184C108.227 18.5055 107.059 19.3885 105.443 19.3885C104.565 19.3884 103.343 18.987 103.076 17.7113C102.429 18.5856 101.363 19.3885 100.13 19.3885C98.1989 19.3883 97.1691 18.1298 96.8203 16.5201C95.2996 18.584 94.1205 19.3885 92.5453 19.3885C89.9604 19.3883 88.7507 17.1202 89.4852 14.8519C89.7893 13.8123 90.4252 12.7722 91.9256 11.331L91.8637 11.2603C91.5287 11.4729 91.055 11.5907 90.6044 11.5907C90.2962 11.5907 90.0537 11.5672 89.8067 11.52C89.2804 12.6303 88.6396 13.6464 88.284 14.2135L88.2854 14.2142L88.1963 14.3556C86.133 17.64 84.7439 19.3885 82.4671 19.3885C81.5897 19.3885 80.3676 18.9871 80.1003 17.7113C79.4533 18.5856 78.3878 19.3885 77.1545 19.3885C75.4904 19.3884 74.4961 18.454 74.0294 17.1655C71.3596 19.9073 68.6737 21.2464 65.8546 21.2465C60.1169 21.2465 56.9972 14.9034 59.0254 8.27938C60.4509 3.56105 64.1096 0.157863 68.5265 0.157597ZM80.2357 10.8823C79.5243 10.8823 78.7604 11.9928 78.3684 13.2923C77.9025 14.8045 78.0495 16.4112 78.9505 16.4114C79.5908 16.4111 80.2228 15.4656 80.5998 14.0953C81.0746 12.5123 81.0656 10.8825 80.2357 10.8823ZM103.211 10.8823C102.5 10.8824 101.736 11.9929 101.344 13.2923C100.878 14.8044 101.025 16.4112 101.926 16.4114C102.566 16.4114 103.198 15.4657 103.575 14.0953C104.05 12.5122 104.041 10.8824 103.211 10.8823ZM127.577 10.8823C126.865 10.8823 126.102 11.9928 125.71 13.2923C125.244 14.8044 125.39 16.411 126.291 16.4114C126.931 16.4114 127.564 15.4658 127.941 14.0953C128.416 12.5124 128.407 10.8827 127.577 10.8823Z" fill="#660008"/>
<path d="M0.000359192 16.7528C24.0003 -4.36677 48.0001 16.2001 48.0001 42H30C34.5124 30.7192 30.8591 11.1476 5.18322 15.6002C16.3669 13.9325 22.393 18.7952 23.8647 24.2875C26.5368 34.2601 16.6191 42.0001 6.00002 42C12 35.5201 18.0571 20.3323 0.00047638 16.7529C0.000314837 16.7529 0.000169174 16.7531 7.62939e-06 16.7531L0.000124817 16.7529C0.000243361 16.7528 0.00024065 16.7528 0.000359192 16.7528Z" fill="#FF540A"/>
<path d="M5.3945 20.3788C4.24882 19.3975 2.43594 18.5861 7.62939e-06 17.9528C2.82001 20.773 2.64001 22.7528 7.62939e-06 25.7528C3.7292 25.7528 8.22674 22.8048 5.3945 20.3788Z" fill="#FF540A"/>
<path d="M10.0085 1.75304C5.41307 4.40611 1.73991 9.05935 0 15.5528C7.80001 7.75302 16.56 4.33308 24 4.93308C21.1793 -1.27255 14.34 -0.74771 10.0085 1.75304Z" fill="#FF540A"/>
</svg>
