<svg width="36" height="36" viewBox="0 0 36 36" fill="none" xmlns="http://www.w3.org/2000/svg">
<path d="M24 28.5V25.5C24 23.9087 23.3679 22.3826 22.2426 21.2574C21.1174 20.1321 19.5913 19.5 18 19.5H9C7.4087 19.5 5.88258 20.1321 4.75736 21.2574C3.63214 22.3826 3 23.9087 3 25.5V28.5" stroke="#F2580C" stroke-width="2" stroke-linecap="round" stroke-linejoin="round"/>
<path d="M13.5 16.5C16.8137 16.5 19.5 13.8137 19.5 10.5C19.5 7.18629 16.8137 4.5 13.5 4.5C10.1863 4.5 7.5 7.18629 7.5 10.5C7.5 13.8137 10.1863 16.5 13.5 16.5Z" stroke="#F2580C" stroke-width="2" stroke-linecap="round" stroke-linejoin="round"/>
<path d="M33 28.5V25.5C33.009 24.1629 32.5711 22.8611 31.7559 21.8013C30.9406 20.7414 29.7947 19.9843 28.5 19.65" stroke="#F2580C" stroke-width="2" stroke-linecap="round" stroke-linejoin="round"/>
<path d="M24 4.65002C25.4095 4.87501 26.6927 5.59513 27.6191 6.68107C28.5454 7.76702 29.0543 9.14764 29.0543 10.575C29.0543 12.0024 28.5454 13.383 27.6191 14.469C26.6927 15.5549 25.4095 16.275 24 16.5" stroke="#F2580C" stroke-width="2" stroke-linecap="round" stroke-linejoin="round"/>
</svg>
